<svg width="1440" height="1024" viewBox="0 0 1440 1024" fill="none" xmlns="http://www.w3.org/2000/svg">
<path fill-rule="evenodd" clip-rule="evenodd" d="M1124.75 -253.125C1128.45 -288.276 1135.63 -323.131 1146.28 -357.134L1496.87 -707.723C1530.87 -718.37 1565.72 -725.547 1600.88 -729.254L1124.75 -253.125ZM1289.75 192.888C1304.09 206.441 1319 219.05 1334.39 230.717L2084.72 -519.606C2073.05 -535.002 2060.44 -549.911 2046.89 -564.255L1289.75 192.888ZM1443.78 294.7C1425.11 286.59 1406.81 277.366 1388.98 267.027L2121.03 -465.021C2131.37 -447.188 2140.59 -428.886 2148.7 -410.216L1443.78 294.7ZM1510.76 318.618C1533.11 324.958 1555.8 329.816 1578.66 333.194L2187.19 -275.338C2183.82 -298.2 2178.96 -320.886 2172.62 -343.24L1510.76 318.618ZM1755.21 330.015C1725.01 335.597 1694.43 338.572 1663.81 338.937L2192.94 -190.186C2192.57 -159.573 2189.6 -128.986 2184.01 -98.7853L1755.21 330.015ZM1890.27 285.852C1942.98 260.408 1992.38 225.825 2036.1 182.102C2079.83 138.379 2114.41 88.978 2139.85 36.272L1890.27 285.852ZM2000.05 -608.306L1245.69 146.045C1232.98 130.803 1221.24 115.021 1210.48 98.781L1952.78 -643.52C1969.02 -632.761 1984.8 -621.023 2000.05 -608.306ZM1177.26 41.104L1895.1 -676.738C1876.19 -686.104 1856.84 -694.284 1837.17 -701.279L1152.72 -16.8325C1159.72 2.84386 1167.9 22.193 1177.26 41.104ZM1132.87 -87.8765C1127.92 -111.863 1124.63 -136.123 1122.99 -160.474L1693.53 -731.011C1717.88 -729.373 1742.14 -726.08 1766.12 -721.13L1132.87 -87.8765Z" fill="#00C48C"/>
<path d="M1078.37 705.539L1358.91 784.295L1150.43 987.879L1078.37 705.539Z" fill="#00C48C" fill-opacity="0.5"/>
<path d="M1183.5 799.606L1464.05 878.363L1255.57 1081.95L1183.5 799.606Z" fill="#00C48C" fill-opacity="0.5"/>
<path d="M1292.6 892.431L1573.15 971.188L1364.67 1174.77L1292.6 892.431Z" fill="#00C48C" fill-opacity="0.5"/>
<circle cx="-131" cy="512" r="457" fill="#00C48C"/>
<circle r="38" transform="matrix(1 0 0 -1 162 167)" fill="#FFA26B"/>
</svg>
