<svg width="20" height="20" viewBox="0 0 16 16" fill="none" xmlns="http://www.w3.org/2000/svg">
<path d="M8.00006 2.56C11.0045 2.56 13.4401 4.99552 13.4401 8C13.4401 10.4154 11.8653 12.4621 9.68678 13.1722C9.68742 13.1702 9.68838 13.167 9.68838 13.167C9.68838 13.167 9.32134 12.9949 9.32902 12.6877C9.33766 12.3498 9.32902 11.561 9.32902 11.2714C9.32902 10.7744 9.01446 10.4221 9.01446 10.4221C9.01446 10.4221 11.4813 10.4499 11.4813 7.8176C11.4813 6.80192 10.9505 6.2736 10.9505 6.2736C10.9505 6.2736 11.2292 5.18944 10.8538 4.7296C10.433 4.68416 9.67974 5.13184 9.35782 5.3408C9.35782 5.3408 8.84806 5.13184 7.99974 5.13184C7.15174 5.13184 6.64166 5.3408 6.64166 5.3408C6.32006 5.13184 5.56646 4.68416 5.14566 4.7296C4.7703 5.18944 5.04902 6.2736 5.04902 6.2736C5.04902 6.2736 4.51814 6.80224 4.51814 7.8176C4.51814 10.4499 6.98502 10.4221 6.98502 10.4221C6.98502 10.4221 6.73638 10.703 6.6823 11.1158C6.51014 11.1744 6.2567 11.2464 6.05222 11.2464C5.51686 11.2464 5.1095 10.7261 4.96038 10.4851C4.81318 10.2477 4.51142 10.0483 4.23046 10.0483C4.04518 10.0483 3.95494 10.1408 3.95494 10.2467C3.95494 10.3526 4.21446 10.4266 4.38598 10.6227C4.74726 11.0368 4.74086 11.9674 6.02822 11.9674C6.16806 11.9674 6.4535 11.9331 6.66822 11.904C6.66694 12.1971 6.66662 12.5062 6.6711 12.687C6.67878 12.9942 6.31174 13.1664 6.31174 13.1664C6.31174 13.1664 6.3127 13.1696 6.31334 13.1715C4.13478 12.4621 2.56006 10.4154 2.56006 8C2.56006 4.99552 4.99558 2.56 8.00006 2.56Z" fill="black"/>
</svg>
