<svg width="497" height="1024" viewBox="0 0 497 1024" fill="none" xmlns="http://www.w3.org/2000/svg">
<path fill-rule="evenodd" clip-rule="evenodd" d="M181.746 -253.125C185.453 -288.276 192.63 -323.131 203.277 -357.134L553.866 -707.723C587.869 -718.37 622.724 -725.547 657.875 -729.254L181.746 -253.125ZM346.745 192.888C361.089 206.441 375.998 219.05 391.394 230.717L1141.72 -519.606C1130.05 -535.002 1117.44 -549.911 1103.89 -564.255L346.745 192.888ZM500.784 294.7C482.114 286.59 463.812 277.366 445.979 267.027L1178.03 -465.021C1188.37 -447.188 1197.59 -428.886 1205.7 -410.216L500.784 294.7ZM567.76 318.618C590.114 324.958 612.8 329.816 635.662 333.194L1244.19 -275.338C1240.82 -298.2 1235.96 -320.886 1229.62 -343.24L567.76 318.618ZM812.215 330.015C782.014 335.597 751.427 338.572 720.814 338.937L1249.94 -190.186C1249.57 -159.573 1246.6 -128.986 1241.01 -98.7853L812.215 330.015ZM947.272 285.852C999.978 260.408 1049.38 225.825 1093.1 182.102C1136.83 138.379 1171.41 88.978 1196.85 36.272L947.272 285.852ZM1057.05 -608.306L302.694 146.045C289.977 130.803 278.239 115.021 267.48 98.781L1009.78 -643.52C1026.02 -632.761 1041.8 -621.023 1057.05 -608.306ZM234.262 41.104L952.104 -676.738C933.193 -686.104 913.844 -694.284 894.167 -701.279L209.721 -16.8325C216.715 2.84386 224.896 22.193 234.262 41.104ZM189.87 -87.8765C184.92 -111.863 181.627 -136.123 179.989 -160.474L750.526 -731.011C774.877 -729.373 799.137 -726.08 823.123 -721.13L189.87 -87.8765Z" fill="#00C48C"/>
<path d="M135.365 705.539L415.913 784.295L207.434 987.879L135.365 705.539Z" fill="#00C48C" fill-opacity="0.5"/>
<path d="M240.502 799.606L521.05 878.363L312.571 1081.95L240.502 799.606Z" fill="#00C48C" fill-opacity="0.5"/>
<path d="M349.603 892.431L630.15 971.188L421.671 1174.77L349.603 892.431Z" fill="#00C48C" fill-opacity="0.5"/>
</svg>
